<svg width="512" height="512" viewBox="0 0 512 512" xmlns="http://www.w3.org/2000/svg">
  <defs>
    <linearGradient id="bgm" x1="0" y1="0" x2="1" y2="1">
      <stop offset="0" stop-color="#2a1228"/>
      <stop offset="0.55" stop-color="#5a2e57"/>
      <stop offset="1" stop-color="#c97b9b"/>
    </linearGradient>
    <linearGradient id="heartm" x1="0" y1="0" x2="1" y2="1">
      <stop offset="0" stop-color="#f0d89a"/>
      <stop offset="1" stop-color="#e6c068"/>
    </linearGradient>
  </defs>
  <rect width="512" height="512" fill="url(#bgm)"/>
  <!-- corazón dentro de la zona segura (centrado, ~60% del área) -->
  <g transform="translate(256 256) scale(0.62) translate(-256 -256)">
    <path fill="url(#heartm)" d="M256 392c-8 0-15-3-21-9l-96-95c-32-32-32-84 0-116 30-30 78-31 110-3l7 6 7-6c32-28 80-27 110 3 32 32 32 84 0 116l-96 95c-6 6-13 9-21 9z"/>
  </g>
</svg>
